<?xml version="1.0" encoding="UTF-8"?>
<svg id="Capa_2" data-name="Capa 2" xmlns="http://www.w3.org/2000/svg" viewBox="0 0 902.4 654.2">
  <g id="Capa_1-2" data-name="Capa 1">
    <path d="M364.81,38.94C262.5-4.65,134.02,19.6,60.56,101.84-11.16,182.11-1.61,285.36,3.45,340.03c2.35,25.43,23.29,251.87,187.88,304.11,108.87,34.56,207.58-30.28,220.66-39.16,115.43-78.41,137.37-226.64,119.54-328.32-5.48-31.27-31.59-180.15-166.71-237.72ZM464.17,415.54c-10.97,38.3-28.68,100.08-85.82,143.45-13.11,9.95-64.51,48.96-132.17,40.72-37.59-4.58-63.72-21.74-75.17-29.44-47.81-32.17-66.69-77.29-75.17-98.35-17.58-43.66-17.22-80.58-16.91-112.75.34-35.28.65-67.05,17.54-103.98,7.55-16.52,24.81-52.96,65.16-78.18,5.8-3.63,73.06-42.94,142.07-14.15,22.51,9.39,42.42,25.04,55.56,45.73,12.08,19.03,19.68,40.86,24.02,62.9,9.45,48.02,5.23,99.99-12.69,145.6-15.92,40.54-45.35,79.51-87.92,94.24-14.36,4.97-30.13,5.62-44.33-.22-14.1-5.8-25.09-16.7-33.7-29.04-20.37-29.23-29.12-66.39-33.67-101.2-4.28-32.77-4.93-66.49,4.52-98.38,5.71-19.26,13.07-41.61,30.3-53.68,17.81-12.48,41.91-6.71,55.73,8.87,15,16.9,21.17,40.61,24.85,62.38,4.58,27.03,5.16,54.52,1.87,81.76-.14,1.13-5.47,4.38-9.38,2.98-5.7-2.04-5.98-13.42-6.99-29.31-.99-15.62-2.11-33.22-4.74-48.49-3.34-19.43-5.49-31.03-15-41.24-1.54-1.65-17.49-18.36-32.8-14.06-14.91,4.19-19.98,25.68-23.43,40.3-3.2,13.56-4.93,30.13-.94,59.98,4.87,36.4,7.3,54.64,19.31,75.34,5.22,9,32.11,55.37,66.91,53.05,33.69-2.24,53.73-48.72,64.3-73.24,3.28-7.61,16.29-39.16,15.67-83.7-.46-32.63-1-71.24-29.36-104.54-2.49-2.93-42.74-48.65-102.15-43.11-35.85,3.34-60.2,23.73-67.48,29.99-16.85,14.49-25.62,29.97-31.86,41.24-2.96,5.33-14.59,26.92-21.56,64.67-4.08,22.12-11.03,62.06.52,111.99,4.57,19.75,14.96,54.87,42.47,91.82,17.89,24.03,41.96,44.54,70.78,53.89,31.4,10.19,65.39,5.84,95.2-7.5,52.8-23.63,78.29-68.25,95.12-99.27,26.63-49.07,31.55-93.52,34.17-119.59,2.11-20.93,4.92-51.44-3.55-90.03-3.28-14.94-10.72-42.92-29.86-74.91-13.92-23.26-32.34-44.45-55.82-58.38-25.4-15.07-54.67-21.72-84.04-22.11-29.96-.4-59.71,5.22-88.3,13.89-15.2,4.61-34.54,10.79-57.28,24.57-12.28,7.44-31.81,19.36-49.22,40.01-4.28,5.08-8.64,11.44-17.35,24.15-14.29,20.86-21.64,34.12-28.38,32.65-2.22-.48-3.52-2.38-4.15-3.29-3.47-5.05-2.91-14.32,12.25-39.82,9.3-15.64,15.52-26.1,28.74-40.63,9.33-10.25,26.28-26.68,50.82-42.38,42.59-27.24,85.2-34.34,100.23-36.33,22.24-2.95,97.14-12.87,164.75,35.71,65.11,46.78,80.92,117.25,85.82,139.06,8.09,36.06,6.49,69.4,5.64,87.07-2.11,43.81-11.11,76.18-13.15,83.31Z"/>
    <path d="M486.47,646.43c12.14,11.74,34.86,6.1,44.44,3.72,56.65-14.06,82.78-93.81,99.46-152.79,64.2-226.98,118.77-419.94,31.35-479.7-38.34-26.21-96.53-21.67-132.19,3.28-99.53,69.66-24.83,302.43-16.39,327.85,51.37,154.87,177.69,311.85,248.87,290.59,24.09-7.2,43.42-35.29,44.21-61.3,1.89-62.16-103.35-70.42-187.13-179.13-13.08-16.97-80.84-109.19-68.68-220.25,5.15-47.04,26.23-99.44,40.44-98.02,16.9,1.69,25.35,79.73,25.11,132.73-1.07,232.34-171.12,392.75-129.49,433.02Z"/>
    <path d="M725.16,528.76c63.06-135.55-45.78-254.08,10.48-309.83,42.8-42.4,152.07-19.72,165.37,19.54,15.62,46.1-106.37,88.5-110.12,182.83-2.7,67.83,63.94,93.97,46.41,152.2-9.62,31.95-40.32,60.98-75.3,65.87-18.16,2.54-48.97.18-60.88-18.87-15.32-24.51,10.05-61.69,24.03-91.75Z"/>
    <path d="M755.27,126.95c-10.67-25.76,4.94-54.62,24.39-61.81,27.88-10.31,65.39,23.28,61.55,53.32-2.06,16.13-15.79,29.24-30.19,33.93-20.53,6.69-46.23-2.48-55.74-25.45Z"/>
  </g>
</svg>